<svg width="25" height="25" viewBox="0 0 25 25" fill="none" xmlns="http://www.w3.org/2000/svg">
<path fill-rule="evenodd" clip-rule="evenodd" d="M12.416 24.056C18.416 24.056 23.28 19.192 23.28 13.192C23.28 7.19197 18.416 2.328 12.416 2.328C6.41597 2.328 1.552 7.19197 1.552 13.192C1.552 15.1404 2.06494 16.9691 2.96314 18.5502L1.552 24.056L7.22833 22.7397C8.76986 23.5791 10.5372 24.056 12.416 24.056ZM12.416 22.3846C17.4929 22.3846 21.6086 18.2689 21.6086 13.192C21.6086 8.11505 17.4929 3.99939 12.416 3.99939C7.33905 3.99939 3.22338 8.11505 3.22338 13.192C3.22338 15.1522 3.83693 16.9691 4.88246 18.4612L4.05908 21.5489L7.20122 20.7634C8.68294 21.7858 10.4795 22.3846 12.416 22.3846Z" fill="#BFC8D0"/>
<path d="M21.728 12.416C21.728 17.5589 17.5589 21.728 12.416 21.728C10.4544 21.728 8.63446 21.1214 7.1335 20.0857L3.95055 20.8814L4.78463 17.7536C3.72552 16.2422 3.104 14.4017 3.104 12.416C3.104 7.27312 7.27312 3.104 12.416 3.104C17.5589 3.104 21.728 7.27312 21.728 12.416Z" fill="url(#paint0_linear_109_1934)"/>
<path fill-rule="evenodd" clip-rule="evenodd" d="M12.416 23.28C18.416 23.28 23.28 18.416 23.28 12.416C23.28 6.41597 18.416 1.552 12.416 1.552C6.41597 1.552 1.552 6.41597 1.552 12.416C1.552 14.3644 2.06494 16.1931 2.96314 17.7742L1.552 23.28L7.22833 21.9637C8.76986 22.8031 10.5372 23.28 12.416 23.28ZM12.416 21.6086C17.4929 21.6086 21.6086 17.4929 21.6086 12.416C21.6086 7.33905 17.4929 3.22338 12.416 3.22338C7.33905 3.22338 3.22338 7.33905 3.22338 12.416C3.22338 14.3762 3.83693 16.1931 4.88246 17.6852L4.05908 20.7729L7.20122 19.9874C8.68294 21.0098 10.4795 21.6086 12.416 21.6086Z" fill="white"/>
<path d="M9.69997 7.37199C9.44167 6.85318 9.04542 6.89911 8.64512 6.89911C7.92972 6.89911 6.81421 7.75603 6.81421 9.35084C6.81421 10.6579 7.39015 12.0886 9.3309 14.2289C11.2039 16.2944 13.6648 17.3629 15.7079 17.3266C17.751 17.2902 18.1713 15.5321 18.1713 14.9383C18.1713 14.6752 18.008 14.5439 17.8955 14.5082C17.1993 14.1741 15.9152 13.5515 15.623 13.4345C15.3308 13.3175 15.1783 13.4757 15.0835 13.5618C14.8185 13.8143 14.2933 14.5584 14.1135 14.7258C13.9336 14.8932 13.6655 14.8085 13.554 14.7452C13.1434 14.5805 12.0302 14.0853 11.1429 13.2252C10.0455 12.1614 9.98112 11.7954 9.77437 11.4696C9.60898 11.209 9.73035 11.0491 9.79091 10.9792C10.0273 10.7064 10.3538 10.2852 10.5002 10.0759C10.6466 9.86656 10.5304 9.54877 10.4607 9.35085C10.1607 8.49962 9.90661 7.78705 9.69997 7.37199Z" fill="white"/>
<defs>
<linearGradient id="paint0_linear_109_1934" x1="20.564" y1="5.432" x2="3.104" y2="21.728" gradientUnits="userSpaceOnUse">
<stop stop-color="#5BD066"/>
<stop offset="1" stop-color="#27B43E"/>
</linearGradient>
</defs>
</svg>
