<svg width="244" height="66" viewBox="0 0 244 66" fill="none" xmlns="http://www.w3.org/2000/svg">
<path d="M0.52 65L14.28 0.199995H23L36.84 65H28.28L25.32 48.68H12.12L9 65H0.52ZM13.32 42.2H24.12L18.68 13L13.32 42.2ZM49.335 65.64C47.5217 65.64 46.1083 65.16 45.095 64.2C44.0817 63.24 43.3617 62.04 42.935 60.6C42.5617 59.16 42.375 57.6933 42.375 56.2V18.76H50.935V53.64C50.935 55.2933 51.175 56.6 51.655 57.56C52.135 58.4667 53.1217 58.92 54.615 58.92C55.575 58.92 56.5617 58.6533 57.575 58.12C58.6417 57.5333 59.655 56.84 60.615 56.04V18.76H69.175V65H60.615V60.44C59.1217 61.88 57.415 63.1067 55.495 64.12C53.6283 65.1333 51.575 65.64 49.335 65.64ZM90.2494 65.64C87.8494 65.64 85.9027 65.1867 84.4094 64.28C82.9694 63.3733 81.9027 62.0933 81.2094 60.44C80.5694 58.7867 80.2494 56.84 80.2494 54.6V24.44H75.3694V18.76H80.2494V5.24H88.8094V18.76H96.2494V24.44H88.8094V54.04C88.8094 55.8533 89.1027 57.16 89.6894 57.96C90.276 58.7067 91.396 59.08 93.0494 59.08C93.476 59.08 93.956 59.0533 94.4894 59C95.076 58.9467 95.636 58.8933 96.1694 58.84V65.16C95.1027 65.32 94.116 65.4267 93.2094 65.48C92.3027 65.5867 91.316 65.64 90.2494 65.64ZM115.259 65.64C111.845 65.64 109.152 64.9467 107.179 63.56C105.205 62.1733 103.792 60.2 102.939 57.64C102.139 55.08 101.739 52.0667 101.739 48.6V35.16C101.739 31.6933 102.139 28.68 102.939 26.12C103.792 23.56 105.205 21.5867 107.179 20.2C109.152 18.8133 111.845 18.12 115.259 18.12C118.672 18.12 121.339 18.8133 123.259 20.2C125.232 21.5867 126.619 23.56 127.419 26.12C128.272 28.68 128.699 31.6933 128.699 35.16V48.6C128.699 52.0667 128.272 55.08 127.419 57.64C126.619 60.2 125.232 62.1733 123.259 63.56C121.339 64.9467 118.672 65.64 115.259 65.64ZM115.259 59.32C116.912 59.32 118.059 58.84 118.699 57.88C119.392 56.92 119.792 55.6667 119.899 54.12C120.059 52.52 120.139 50.8667 120.139 49.16V34.68C120.139 32.92 120.059 31.2667 119.899 29.72C119.792 28.1733 119.392 26.92 118.699 25.96C118.059 24.9467 116.912 24.44 115.259 24.44C113.605 24.44 112.432 24.9467 111.739 25.96C111.045 26.92 110.619 28.1733 110.459 29.72C110.352 31.2667 110.299 32.92 110.299 34.68V49.16C110.299 50.8667 110.352 52.52 110.459 54.12C110.619 55.6667 111.045 56.92 111.739 57.88C112.432 58.84 113.605 59.32 115.259 59.32Z" fill="white"/>
<path d="M137.083 65V0.199995H152.363C157.643 0.199995 161.75 0.919995 164.683 2.36C167.67 3.8 169.776 6.01333 171.003 9C172.283 11.9867 172.923 15.7733 172.923 20.36V44.04C172.923 48.7333 172.283 52.6533 171.003 55.8C169.776 58.8933 167.696 61.2133 164.763 62.76C161.883 64.2533 157.91 65 152.843 65H137.083ZM148.923 56.76H152.523C155.243 56.76 157.19 56.28 158.363 55.32C159.536 54.36 160.256 52.9733 160.523 51.16C160.79 49.2933 160.923 47.0267 160.923 44.36V19.56C160.923 16.9467 160.736 14.84 160.363 13.24C159.99 11.64 159.216 10.4667 158.043 9.72C156.87 8.97333 154.976 8.6 152.363 8.6H148.923V56.76ZM188.574 65.72C186.494 65.72 184.681 65.1867 183.134 64.12C181.641 63 180.494 61.6133 179.694 59.96C178.894 58.2533 178.494 56.4933 178.494 54.68C178.494 51.8 179.028 49.3733 180.094 47.4C181.161 45.4267 182.574 43.7733 184.334 42.44C186.148 41.1067 188.148 39.96 190.334 39C192.574 37.9867 194.868 37.08 197.214 36.28V32.28C197.214 30.9467 197.108 29.8267 196.894 28.92C196.734 28.0133 196.388 27.32 195.854 26.84C195.321 26.36 194.548 26.12 193.534 26.12C192.574 26.12 191.801 26.3333 191.214 26.76C190.681 27.1867 190.281 27.8 190.014 28.6C189.801 29.3467 189.694 30.2267 189.694 31.24L189.534 34.04L179.134 33.64C179.348 28.3067 180.681 24.3867 183.134 21.88C185.588 19.32 189.348 18.04 194.414 18.04C199.054 18.04 202.441 19.32 204.574 21.88C206.708 24.44 207.774 27.9067 207.774 32.28V53.64C207.774 55.3467 207.801 56.8933 207.854 58.28C207.961 59.6667 208.068 60.92 208.174 62.04C208.334 63.16 208.468 64.1467 208.574 65H198.734C198.574 63.9333 198.388 62.7333 198.174 61.4C197.961 60.0133 197.801 59 197.694 58.36C197.161 60.2267 196.148 61.9333 194.654 63.48C193.161 64.9733 191.134 65.72 188.574 65.72ZM192.574 57.64C193.268 57.64 193.908 57.48 194.494 57.16C195.081 56.7867 195.614 56.36 196.094 55.88C196.574 55.4 196.948 54.9733 197.214 54.6V41.72C195.988 42.4133 194.841 43.1067 193.774 43.8C192.761 44.4933 191.881 45.2667 191.134 46.12C190.388 46.92 189.801 47.8 189.374 48.76C188.948 49.72 188.734 50.84 188.734 52.12C188.734 53.8267 189.054 55.1867 189.694 56.2C190.388 57.16 191.348 57.64 192.574 57.64ZM229.58 65.72C226.007 65.72 223.127 65.0533 220.94 63.72C218.807 62.3333 217.233 60.3867 216.22 57.88C215.26 55.32 214.78 52.3067 214.78 48.84V34.92C214.78 31.3467 215.26 28.3067 216.22 25.8C217.233 23.2933 218.833 21.3733 221.02 20.04C223.207 18.7067 226.06 18.04 229.58 18.04C232.887 18.04 235.58 18.5733 237.66 19.64C239.793 20.6533 241.34 22.2267 242.3 24.36C243.26 26.44 243.74 29.08 243.74 32.28V36.12H233.5V32.04C233.5 30.44 233.367 29.1867 233.1 28.28C232.887 27.32 232.487 26.6533 231.9 26.28C231.313 25.8533 230.54 25.64 229.58 25.64C228.62 25.64 227.847 25.9067 227.26 26.44C226.673 26.92 226.247 27.72 225.98 28.84C225.767 29.96 225.66 31.5067 225.66 33.48V50.44C225.66 53.4267 225.98 55.4533 226.62 56.52C227.26 57.5333 228.273 58.04 229.66 58.04C230.727 58.04 231.527 57.8 232.06 57.32C232.647 56.84 233.02 56.1467 233.18 55.24C233.393 54.28 233.5 53.1333 233.5 51.8V46.84H243.74V51.24C243.74 54.3333 243.233 56.9733 242.22 59.16C241.26 61.3467 239.713 63 237.58 64.12C235.5 65.1867 232.833 65.72 229.58 65.72Z" fill="#148865"/>
</svg>
